<svg width="71" height="36" viewBox="0 0 71 36" fill="none" xmlns="http://www.w3.org/2000/svg">
<g clip-path="url(#clip0_1104_227)">
<path d="M14.634 11.0278C15.3172 10.7834 16.0459 10.6531 16.8019 10.6531C20.1113 10.6531 22.8742 13.1754 23.5057 16.5287L28.1965 15.5022C27.1217 9.8058 22.4279 5.51721 16.8019 5.51721C15.5115 5.51721 14.2758 5.74207 13.116 6.1592L14.634 11.0278Z" fill="#9E9E9E"/>
<path d="M9.09923 27.3414L12.272 23.4927C10.8572 22.1469 9.96453 20.1818 9.96453 17.9919C9.96453 15.8052 10.8572 13.8402 12.272 12.4975L9.09923 8.64563C6.69459 10.9333 5.17651 14.2736 5.17651 17.9919C5.17651 21.7134 6.69459 25.0537 9.09923 27.3414" fill="#9E9E9E"/>
<path d="M23.5057 19.4648C22.8711 22.8149 20.1113 25.334 16.8049 25.334C16.0459 25.334 15.3141 25.2036 14.634 24.9559L13.116 29.8311C14.2758 30.245 15.5145 30.4698 16.8049 30.4698C22.4248 30.4698 27.1157 26.1878 28.1965 20.4979L23.5057 19.4648Z" fill="#9E9E9E"/>
<path d="M32.2983 23.6523C32.1435 23.3851 31.937 22.9582 31.8095 22.6421C31.0657 20.7911 31.0323 18.8749 31.6577 17.037C32.3469 15.0198 33.6646 13.4784 35.3679 12.6897C37.5084 11.7023 39.8735 11.8946 41.926 13.2014C43.2285 14.003 44.1515 15.2414 44.8528 16.9946C44.9409 17.2195 45.0198 17.4573 45.0988 17.6627L32.2983 23.6523ZM36.5732 15.665C35.0521 16.3657 34.2688 17.8973 34.4328 19.6896L40.8694 16.7143C39.7612 15.3196 38.3221 14.8568 36.5732 15.665V15.665ZM41.6709 22.137C41.6679 22.137 41.6679 22.1403 41.6679 22.1403L41.5343 22.0425C41.1487 22.7105 40.5506 23.2548 39.7946 23.6067C38.3555 24.278 37.0226 24.1053 36.0632 23.2026L35.9751 23.346C35.9751 23.346 35.9751 23.3427 35.9721 23.3427L34.3386 25.9661C34.7455 26.2692 35.1796 26.5233 35.6351 26.7286C37.4385 27.5336 39.2845 27.4945 41.1032 26.6472C42.4178 26.0345 43.4501 25.1025 44.1545 23.9196L41.6709 22.137ZM49.571 8.8313V23.4112L51.6842 24.3302L50.4849 27.3348L48.1531 26.292C47.6309 26.0476 47.2727 25.6761 47.0055 25.2557C46.7474 24.8288 46.5561 24.2389 46.5561 23.4503V8.8313H49.571ZM55.0422 19.6994C55.0422 18.4578 55.5553 17.3433 56.3629 16.5872L54.1951 13.9932C52.7256 15.388 51.7996 17.4248 51.7996 19.6929C51.7965 21.9643 52.7226 24.0043 54.189 25.3991L56.3538 22.805C55.5492 22.0457 55.0422 20.9378 55.0422 19.6994V19.6994ZM58.892 23.8348C58.467 23.8348 58.054 23.7566 57.6715 23.6197L56.6362 26.9209C57.3436 27.1751 58.0996 27.3152 58.889 27.3152C62.3198 27.3185 65.1829 24.7049 65.8478 21.2343L62.666 20.5369C62.3047 22.4238 60.7532 23.8381 58.892 23.8348V23.8348ZM58.9011 12.0836C58.1148 12.0836 57.3588 12.2205 56.6513 12.4714L57.6776 15.7758C58.0631 15.6389 58.473 15.564 58.8981 15.564C60.7623 15.5672 62.3168 16.9881 62.669 18.8782L65.8509 18.1873C65.1981 14.7102 62.335 12.0868 58.9011 12.0836V12.0836Z" fill="#EEEEEE"/>
</g>
<defs>
<clipPath id="clip0_1104_227">
<rect width="71" height="36" fill="white"/>
</clipPath>
</defs>
</svg>
